<svg width="25" height="25" viewBox="0 0 25 25" fill="none" xmlns="http://www.w3.org/2000/svg">
<path opacity="0.4" d="M15.8474 2.97733H10.062C9.38369 2.97733 8.42611 3.37632 7.94731 3.85511L3.85764 7.94478C3.37885 8.42357 2.97986 9.38116 2.97986 10.0594V15.8448C2.97986 16.5231 3.37885 17.4807 3.85764 17.9595L7.94731 22.0492C8.42611 22.528 9.38369 22.9269 10.062 22.9269H15.8474C16.5257 22.9269 17.4832 22.528 17.962 22.0492L22.0517 17.9595C22.5305 17.4807 22.9295 16.5231 22.9295 15.8448V10.0594C22.9295 9.38116 22.5305 8.42357 22.0517 7.94478L17.962 3.85511C17.4832 3.37632 16.5257 2.97733 15.8474 2.97733Z" fill="#FF0000"/>
<path d="M14.012 12.9531L16.9745 9.99061C17.2638 9.70134 17.2638 9.22255 16.9745 8.93328C16.8337 8.79415 16.6438 8.71613 16.4459 8.71613C16.2479 8.71613 16.058 8.79415 15.9172 8.93328L12.9547 11.8958L9.99215 8.93328C9.85136 8.79415 9.66141 8.71613 9.46348 8.71613C9.26555 8.71613 9.0756 8.79415 8.93482 8.93328C8.64555 9.22255 8.64555 9.70134 8.93482 9.99061L11.8973 12.9531L8.93482 15.9156C8.64555 16.2049 8.64555 16.6837 8.93482 16.973C9.08444 17.1226 9.27396 17.1924 9.46348 17.1924C9.653 17.1924 9.84252 17.1226 9.99215 16.973L12.9547 14.0105L15.9172 16.973C16.0668 17.1226 16.2563 17.1924 16.4459 17.1924C16.6354 17.1924 16.8249 17.1226 16.9745 16.973C17.2638 16.6837 17.2638 16.2049 16.9745 15.9156L14.012 12.9531Z" fill="#ECECEC"/>
</svg>
